<svg id="fix_1" enable-background="new 0 0 24 24" height="32" viewBox="0 0 24 24" width="32" xmlns="http://www.w3.org/2000/svg"><path d="m12 14c-3.86 0-7-3.14-7-7s3.14-7 7-7 7 3.14 7 7-3.14 7-7 7zm0-13c-3.309 0-6 2.692-6 6s2.691 6 6 6 6-2.691 6-6-2.691-6-6-6z"/><path d="m12.5 10.5h-2c-.276 0-.5-.224-.5-.5s.224-.5.5-.5h2c.276 0 .5-.224.5-.5v-4c0-.276-.224-.5-.5-.5h-2c-.276 0-.5-.223-.5-.5s.224-.5.5-.5h2c.827 0 1.5.673 1.5 1.5v4c0 .828-.673 1.5-1.5 1.5z"/><path d="m13.5 7.5h-3c-.276 0-.5-.223-.5-.5s.224-.5.5-.5h3c.276 0 .5.224.5.5s-.224.5-.5.5z"/><path d="m7.675 24c-.005 0-.011 0-.017 0-.185-.006-.351-.113-.432-.279l-1.442-2.93-3.267.208c-.182.004-.359-.079-.457-.235s-.101-.354-.008-.514l5.041-8.736c.138-.239.444-.321.683-.183s.321.444.183.683l-4.575 7.928 2.669-.17c.211-.012.392.097.48.278l1.177 2.39 3.822-6.61c.138-.239.442-.321.683-.183.239.139.321.444.182.684l-4.29 7.42c-.089.154-.254.249-.432.249z"/><path d="m16.255 24c-.178 0-.343-.095-.433-.25l-5.844-10.163c-.136-.24-.052-.545.188-.682.241-.135.546-.051.682.188l1.552 2.739 3.821 6.609 1.186-2.395c.089-.18.266-.288.48-.277l2.669.17-4.559-7.903c-.138-.239-.056-.545.183-.683.239-.139.544-.057.683.183l5.025 8.712c.092.16.089.357-.008.514-.098.157-.276.241-.457.235l-3.268-.209-1.452 2.932c-.082.165-.248.271-.432.277-.005.003-.011.003-.016.003z"/></svg>
