<svg id="Capa_1" enable-background="new 0 0 512 512" height="32" viewBox="0 0 512 512" width="32" xmlns="http://www.w3.org/2000/svg"><g><g><path d="m488.468 95.677h-464.936c-8.854 0-16.032 7.178-16.032 16.032v288.581h497v-288.58c0-8.855-7.178-16.033-16.032-16.033z" fill="#e5646e"/><path d="m31.548 352.194v-256.517h-8.016c-8.854 0-16.032 7.178-16.032 16.032v288.581c0 8.854 7.179 16.032 16.032 16.032h464.935c8.854 0 16.032-7.178 16.032-16.032v-8.016h-432.87c-22.1 0-40.081-17.98-40.081-40.08z" fill="#db4655"/><path d="m191.871 320.129c-35.417 0-64.129-28.712-64.129-64.129s28.712-64.129 64.129-64.129c13.249 0 25.558 4.021 35.778 10.905-14.682-16.491-36.009-26.938-59.826-26.938-44.272 0-80.161 35.889-80.161 80.161s35.89 80.161 80.161 80.161c23.816 0 45.143-10.446 59.825-26.937-10.22 6.885-22.528 10.906-35.777 10.906z" fill="#fff"/></g><g><path d="m154.79 203.137c1.972 3.643 6.523 4.998 10.166 3.025 8.208-4.443 17.515-6.791 26.916-6.791 11.316 0 22.239 3.329 31.588 9.625 3.135 2.112 7.352 1.561 9.838-1.286 2.487-2.847 2.467-7.099-.046-9.922-16.663-18.716-40.51-29.45-65.428-29.45-48.337 0-87.662 39.325-87.662 87.661s39.325 87.661 87.662 87.661c24.917 0 48.764-10.734 65.427-29.45 2.513-2.823 2.533-7.075.046-9.922-2.486-2.846-6.702-3.397-9.838-1.286-9.349 6.297-20.271 9.625-31.587 9.625-31.226 0-56.629-25.404-56.629-56.629 0-10.654 2.973-21.032 8.598-30.013 2.198-3.51 1.135-8.139-2.375-10.337s-8.139-1.135-10.337 2.375c-7.121 11.37-10.885 24.501-10.885 37.975 0 36.452 27.366 66.631 62.635 71.067-4.914 1.052-9.957 1.594-15.054 1.594-40.066 0-72.662-32.596-72.662-72.661s32.596-72.661 72.662-72.661c5.102 0 10.152.544 15.071 1.598-8.777 1.108-17.314 3.831-25.079 8.034-3.645 1.973-4.999 6.525-3.027 10.168z"/><path d="m289.201 250.505c0-.767-.119-1.548-.369-2.317-1.28-3.939-5.51-6.097-9.451-4.815l-10.548 3.427v-11.091c0-4.142-3.358-7.5-7.5-7.5s-7.5 3.358-7.5 7.5v11.091l-10.548-3.427c-3.943-1.281-8.171.876-9.451 4.815-.25.77-.369 1.55-.369 2.317-.001 3.163 2.014 6.104 5.184 7.133l10.549 3.428-6.52 8.973c-.968 1.332-1.434 2.875-1.433 4.405 0 2.318 1.073 4.604 3.092 6.071 1.332.967 2.874 1.433 4.402 1.433 2.319 0 4.606-1.072 6.074-3.092l6.52-8.974 6.52 8.973c2.435 3.352 7.125 4.095 10.476 1.659 2.02-1.467 3.092-3.752 3.092-6.071 0-1.529-.465-3.073-1.433-4.404l-6.519-8.973 10.549-3.428c3.169-1.029 5.184-3.97 5.183-7.133z"/><path d="m488.468 88.177h-464.936c-12.975 0-23.532 10.557-23.532 23.532v288.581c0 12.976 10.557 23.532 23.532 23.532h384.776c4.142 0 7.5-3.358 7.5-7.5s-3.358-7.5-7.5-7.5h-384.776c-4.705 0-8.532-3.828-8.532-8.532v-288.581c0-4.705 3.828-8.532 8.532-8.532h464.936c4.705 0 8.532 3.828 8.532 8.532v288.581c0 4.705-3.828 8.532-8.532 8.532h-48.1c-4.142 0-7.5 3.358-7.5 7.5s3.358 7.5 7.5 7.5h48.1c12.976 0 23.532-10.557 23.532-23.532v-288.581c0-12.975-10.557-23.532-23.532-23.532z"/></g></g></svg>
